<?xml version="1.0" encoding="utf-8" ?>
<svg baseProfile="full" height="100%" version="1.1" viewBox="0 0 1788 1320" width="100%" xmlns="http://www.w3.org/2000/svg" xmlns:ev="http://www.w3.org/2001/xml-events" xmlns:xlink="http://www.w3.org/1999/xlink"><defs /><path class="DiffPath diff-0" d="M217,1201 216,1202 212,1202 211,1203 210,1203 209,1204 207,1204 206,1205 205,1205 203,1207 202,1207 201,1208 199,1208 198,1209 197,1209 195,1211 194,1211 192,1213 191,1213 184,1220 184,1221 182,1223 182,1224 181,1225 181,1226 179,1228 179,1229 178,1230 178,1231 177,1232 177,1233 175,1235 175,1236 173,1238 173,1239 172,1240 172,1241 171,1242 171,1243 170,1244 170,1245 169,1246 169,1247 168,1248 168,1250 167,1251 167,1253 166,1254 166,1256 165,1257 165,1260 164,1261 164,1264 163,1265 163,1267 162,1268 162,1269 160,1271 160,1272 159,1273 159,1277 158,1278 158,1285 157,1286 157,1303 156,1304 156,1310 155,1311 155,1319 285,1319 285,1300 284,1299 284,1292 283,1291 283,1286 282,1285 282,1281 281,1280 281,1277 280,1276 280,1274 279,1273 279,1270 278,1269 278,1266 277,1265 277,1260 276,1259 276,1255 275,1254 275,1251 274,1250 274,1248 273,1247 273,1245 272,1244 272,1242 271,1241 271,1240 270,1239 270,1238 269,1237 269,1236 268,1235 268,1234 267,1233 267,1232 264,1229 264,1228 260,1224 260,1223 253,1216 253,1215 250,1212 249,1212 244,1207 243,1207 242,1206 241,1206 240,1205 239,1205 238,1204 236,1204 235,1203 234,1203 233,1202 231,1202 230,1201 Z" fill="#000000" /><path class="DiffPath diff-1" d="M1139,861 1138,862 1133,862 1132,863 1126,863 1125,864 1123,864 1122,865 1119,865 1118,866 1116,866 1115,867 1114,867 1113,868 1111,868 1110,869 1109,869 1108,870 1106,870 1105,871 1104,871 1103,872 1102,872 1101,873 1100,873 1097,876 1096,876 1089,883 1089,884 1087,886 1087,887 1086,888 1086,889 1085,890 1085,891 1084,892 1084,893 1083,894 1083,896 1082,897 1082,900 1081,901 1081,910 1082,911 1082,915 1083,916 1083,918 1084,919 1084,920 1085,921 1085,922 1086,923 1086,925 1088,927 1088,928 1094,934 1095,934 1097,936 1098,936 1100,938 1101,938 1102,939 1103,939 1104,940 1105,940 1106,941 1107,941 1108,942 1111,942 1112,943 1115,943 1116,944 1120,944 1121,945 1157,945 1158,944 1161,944 1162,943 1166,943 1167,942 1170,942 1171,941 1172,941 1173,940 1175,940 1177,938 1178,938 1179,937 1180,937 1185,932 1186,932 1194,924 1194,923 1196,921 1196,920 1197,919 1197,918 1198,917 1198,914 1199,913 1199,909 1200,908 1199,907 1199,902 1198,901 1198,899 1197,898 1197,897 1196,896 1196,895 1195,894 1195,893 1194,892 1194,891 1193,890 1193,889 1192,888 1192,887 1190,885 1190,884 1188,882 1188,881 1185,878 1185,877 1176,868 1175,868 1173,866 1172,866 1171,865 1170,865 1169,864 1168,864 1167,863 1165,863 1164,862 1162,862 1161,861 Z" fill="#000000" /><path class="DiffPath diff-2" d="M548,566 547,567 541,567 540,568 538,568 537,569 534,569 533,570 530,570 529,571 527,571 526,572 520,572 519,573 516,573 515,574 512,574 511,575 508,575 507,576 504,576 503,577 501,577 500,578 498,578 497,579 496,579 495,580 494,580 493,581 492,581 490,583 489,583 487,585 486,585 484,587 483,587 480,590 479,590 478,591 477,591 476,592 473,592 472,593 470,593 469,594 468,594 467,595 465,595 463,597 462,597 460,599 459,599 452,606 452,607 445,614 445,615 443,617 443,618 439,622 439,623 436,626 436,627 435,628 435,629 432,632 432,633 430,635 430,636 427,639 427,640 426,641 426,642 425,643 425,645 424,646 424,647 423,648 423,649 422,650 422,651 421,652 421,653 420,654 420,655 419,656 419,658 418,659 418,660 417,661 417,662 416,663 416,666 415,667 415,673 414,674 414,679 413,680 413,696 414,697 414,702 415,703 415,713 416,714 416,721 417,722 417,726 418,727 418,730 419,731 419,769 420,770 420,778 421,779 421,781 422,782 422,785 423,786 423,789 424,790 424,792 425,793 425,796 426,797 426,800 427,801 427,804 428,805 428,806 429,807 429,809 430,810 430,812 431,813 431,814 432,815 432,816 433,817 433,818 434,819 434,820 435,821 435,823 436,824 436,825 437,826 437,828 438,829 438,830 439,831 439,832 440,833 440,834 442,836 442,837 443,838 443,839 445,841 445,842 447,844 447,845 449,847 449,848 453,852 453,853 459,859 460,859 464,863 465,863 467,865 468,865 470,867 471,867 473,869 474,869 475,870 476,870 477,871 479,871 480,872 482,872 483,873 484,873 485,874 488,874 489,875 491,875 492,876 495,876 496,877 501,877 502,878 510,878 511,879 514,879 515,880 523,880 524,881 531,881 532,882 534,882 535,883 536,883 537,884 539,884 540,885 543,885 544,886 548,886 549,887 552,887 553,888 555,888 556,889 558,889 559,890 563,890 564,891 575,891 576,890 580,890 581,889 583,889 584,888 585,888 586,887 587,887 588,886 589,886 590,885 591,885 593,883 594,883 600,877 600,876 602,874 602,873 605,870 605,869 606,868 606,867 608,865 608,864 611,861 611,860 612,859 612,858 615,855 615,854 617,852 617,851 618,850 618,849 619,848 619,847 620,846 620,845 621,844 621,842 622,841 622,839 623,838 623,836 624,835 624,833 625,832 625,829 626,828 626,824 627,823 627,820 628,819 628,809 629,808 629,804 630,803 630,798 631,797 631,790 632,789 632,756 631,755 631,750 632,749 632,745 633,744 633,739 634,738 634,735 635,734 635,729 636,728 636,691 635,690 635,682 636,681 636,673 635,672 635,660 634,659 634,653 633,652 633,649 632,648 632,645 631,644 631,642 630,641 630,639 629,638 629,637 628,636 628,634 627,633 627,632 626,631 626,629 625,628 625,627 624,626 624,625 622,623 622,622 621,621 621,620 617,616 617,615 612,610 612,609 605,602 605,601 604,600 604,599 602,597 602,596 599,593 599,592 589,582 588,582 585,579 584,579 583,578 582,578 581,577 580,577 578,575 577,575 575,573 574,573 573,572 572,572 571,571 570,571 569,570 568,570 567,569 565,569 564,568 562,568 561,567 555,567 554,566 Z" fill="#000000" /><path class="DiffPath diff-3" d="M1115,423 1114,424 1110,424 1109,425 1106,425 1105,426 1104,426 1103,427 1102,427 1101,428 1100,428 1093,435 1093,436 1092,437 1092,438 1090,440 1090,442 1089,443 1089,445 1088,446 1088,450 1087,451 1087,458 1088,459 1088,461 1089,462 1089,464 1090,465 1090,466 1097,473 1098,473 1099,474 1101,474 1102,475 1103,475 1104,476 1109,476 1110,477 1125,477 1126,476 1129,476 1130,475 1131,475 1132,474 1133,474 1134,473 1135,473 1136,472 1137,472 1142,467 1142,466 1144,464 1144,463 1146,461 1146,459 1147,458 1147,447 1146,446 1146,443 1145,442 1145,440 1144,439 1144,438 1143,437 1143,436 1142,435 1142,434 1137,429 1136,429 1134,427 1133,427 1132,426 1131,426 1130,425 1128,425 1127,424 1123,424 1122,423 Z" fill="#000000" /><path class="DiffPath diff-4" d="M114,423 113,424 107,424 106,425 100,425 99,426 95,426 94,427 93,427 92,428 91,428 88,431 87,431 83,435 83,436 82,437 82,438 81,439 81,440 79,442 79,443 78,444 78,447 77,448 77,449 76,450 76,451 75,452 75,454 74,455 74,456 72,458 72,459 71,460 71,462 70,463 70,464 69,465 69,466 68,467 68,468 67,469 67,470 66,471 66,473 65,474 65,477 64,478 64,480 63,481 63,503 64,504 64,507 65,508 65,511 66,512 66,515 67,516 67,518 68,519 68,520 69,521 69,523 70,524 70,525 73,528 73,529 75,531 76,531 79,534 81,534 82,535 83,535 84,536 85,536 86,537 88,537 89,538 92,538 93,539 96,539 97,540 113,540 114,539 119,539 120,538 122,538 123,537 125,537 126,536 128,536 129,535 131,535 132,534 133,534 134,533 136,533 137,532 138,532 139,531 140,531 142,529 143,529 145,527 146,527 148,525 149,525 152,522 153,522 156,519 156,518 158,516 158,515 160,513 160,512 163,509 163,508 164,507 164,506 165,505 165,503 166,502 166,501 167,500 167,498 168,497 168,460 167,459 167,457 166,456 166,454 165,453 165,451 164,450 164,447 163,446 163,444 162,443 162,442 160,440 160,439 158,437 158,436 155,433 154,433 152,431 151,431 149,429 148,429 147,428 146,428 144,426 143,426 142,425 140,425 139,424 137,424 136,423 Z" fill="#000000" /><path class="DiffPath diff-5" d="M1379,189 1378,190 1375,190 1374,191 1373,191 1371,193 1370,193 1369,194 1369,195 1367,197 1367,199 1366,200 1366,210 1367,211 1367,212 1369,214 1369,215 1370,216 1371,216 1373,218 1374,218 1375,219 1378,219 1379,220 1379,221 1378,222 1378,223 1377,224 1377,226 1376,227 1376,234 1377,235 1377,237 1378,238 1378,239 1379,240 1379,241 1383,245 1383,246 1385,248 1386,248 1391,253 1392,253 1394,255 1395,255 1396,256 1397,256 1398,257 1399,257 1400,258 1401,258 1402,259 1404,259 1405,260 1407,260 1408,261 1411,261 1412,262 1415,262 1416,263 1419,263 1420,264 1423,264 1424,265 1428,265 1429,266 1434,266 1435,267 1440,267 1441,268 1443,268 1444,269 1446,269 1447,270 1449,270 1450,271 1452,271 1453,272 1454,272 1455,273 1456,273 1457,274 1458,274 1459,275 1460,275 1461,276 1462,276 1464,278 1465,278 1466,279 1467,279 1468,280 1469,280 1471,282 1472,282 1473,283 1474,283 1476,285 1477,285 1479,287 1480,287 1482,289 1483,289 1484,290 1485,290 1486,291 1487,291 1489,293 1490,293 1492,295 1493,295 1494,296 1497,296 1498,297 1501,297 1502,298 1514,298 1515,297 1517,297 1518,296 1519,296 1520,295 1521,295 1525,291 1525,290 1526,289 1526,288 1527,287 1527,285 1528,284 1528,280 1529,279 1529,276 1530,275 1530,271 1531,270 1531,240 1530,239 1530,234 1529,233 1529,229 1528,228 1528,226 1527,225 1527,222 1526,221 1526,219 1525,218 1525,214 1524,213 1524,208 1523,207 1523,202 1522,201 1522,199 1521,198 1521,197 1517,193 1516,193 1515,192 1514,192 1513,191 1492,191 1491,192 1479,192 1478,193 1464,193 1463,194 1433,194 1432,193 1405,193 1404,192 1393,192 1392,191 1388,191 1387,190 1384,190 1383,189 Z" fill="#000000" /><path class="DiffPath diff-6" d="M1215,109 1214,110 1207,110 1206,111 1202,111 1201,112 1196,112 1195,113 1193,113 1192,114 1190,114 1189,115 1188,115 1187,116 1186,116 1185,117 1184,117 1181,120 1180,120 1179,121 1179,122 1176,125 1176,126 1175,127 1175,128 1174,129 1174,130 1173,131 1173,132 1172,133 1172,134 1171,135 1171,136 1170,137 1170,138 1169,139 1169,140 1168,141 1168,142 1167,143 1167,145 1164,148 1164,149 1163,150 1163,151 1162,152 1162,153 1160,155 1160,156 1159,157 1159,158 1158,159 1158,161 1157,162 1157,164 1156,165 1156,167 1155,168 1155,169 1154,170 1154,172 1153,173 1153,191 1152,192 1152,204 1153,205 1153,206 1154,207 1154,208 1155,209 1155,210 1156,211 1156,212 1161,217 1162,217 1164,219 1165,219 1166,220 1168,220 1169,221 1203,221 1204,222 1209,222 1210,223 1211,223 1212,224 1213,224 1214,225 1215,225 1216,226 1217,226 1219,228 1220,228 1221,229 1222,229 1223,230 1224,230 1225,231 1226,231 1227,232 1228,232 1229,233 1231,233 1232,234 1235,234 1236,235 1238,235 1239,236 1244,236 1245,237 1251,237 1252,236 1256,236 1257,235 1260,235 1261,234 1263,234 1264,233 1265,233 1266,232 1267,232 1269,230 1270,230 1274,226 1274,225 1276,223 1276,222 1277,221 1277,220 1278,219 1278,218 1279,217 1279,215 1280,214 1280,211 1281,210 1281,207 1282,206 1282,199 1283,198 1283,196 1284,195 1284,193 1285,192 1284,191 1284,190 1285,189 1285,184 1286,183 1286,165 1285,164 1285,161 1284,160 1284,158 1283,157 1283,155 1282,154 1282,153 1281,152 1281,151 1280,150 1280,148 1279,147 1279,144 1278,143 1278,141 1277,140 1277,139 1276,138 1276,136 1275,135 1275,134 1273,132 1273,131 1269,127 1268,127 1266,125 1265,125 1264,124 1263,124 1262,123 1261,123 1256,118 1255,118 1252,115 1251,115 1249,113 1248,113 1247,112 1245,112 1244,111 1241,111 1240,110 1237,110 1236,109 Z" fill="#000000" /></svg>