<?xml version="1.0" encoding="utf-8" ?>
<svg baseProfile="full" height="100%" version="1.1" viewBox="0 0 1920 1292" width="100%" xmlns="http://www.w3.org/2000/svg" xmlns:ev="http://www.w3.org/2001/xml-events" xmlns:xlink="http://www.w3.org/1999/xlink"><defs /><path class="DiffPath diff-0" d="M254,1060 253,1061 250,1061 249,1062 248,1062 247,1063 246,1063 245,1064 244,1064 241,1067 241,1068 239,1070 239,1071 238,1072 238,1074 237,1075 237,1078 236,1079 236,1113 235,1114 235,1131 234,1132 234,1154 233,1155 233,1177 234,1178 234,1181 235,1182 235,1183 236,1184 236,1185 237,1186 237,1187 241,1191 242,1191 244,1193 245,1193 246,1194 249,1194 250,1195 258,1195 259,1194 260,1194 262,1196 263,1196 264,1197 265,1197 266,1198 269,1198 270,1199 286,1199 287,1200 293,1200 294,1201 301,1201 302,1202 308,1202 309,1203 311,1203 312,1202 319,1202 320,1201 323,1201 324,1200 325,1200 326,1199 327,1199 328,1198 330,1198 332,1196 333,1196 335,1194 335,1193 337,1191 337,1190 339,1188 339,1187 340,1186 340,1184 341,1183 341,1180 342,1179 342,1160 343,1159 343,1150 344,1149 344,1137 345,1136 345,1126 346,1125 346,1123 347,1122 347,1098 348,1097 348,1083 347,1082 347,1078 346,1077 346,1076 345,1075 345,1074 343,1072 343,1071 340,1068 340,1067 338,1065 337,1065 335,1063 334,1063 333,1062 332,1062 331,1061 328,1061 327,1060 Z" fill="#000000" /><path class="DiffPath diff-1" d="M1424,969 1423,970 1420,970 1419,971 1418,971 1416,973 1415,973 1402,986 1401,986 1400,985 1394,985 1393,984 1392,984 1390,982 1389,982 1388,981 1386,981 1385,980 1378,980 1377,979 1370,979 1369,980 1366,980 1365,981 1363,981 1362,982 1360,982 1359,983 1358,983 1357,984 1356,984 1355,985 1354,985 1350,989 1350,990 1348,992 1348,993 1346,995 1346,996 1336,1006 1336,1007 1334,1009 1334,1010 1333,1011 1333,1012 1332,1013 1332,1014 1331,1015 1331,1016 1330,1017 1330,1020 1329,1021 1329,1024 1328,1025 1328,1029 1327,1030 1327,1037 1328,1038 1328,1045 1329,1046 1329,1049 1330,1050 1330,1053 1331,1054 1331,1055 1332,1056 1332,1058 1333,1059 1333,1060 1335,1062 1335,1063 1340,1068 1341,1068 1343,1070 1343,1071 1345,1073 1345,1074 1351,1080 1351,1081 1352,1082 1352,1083 1357,1088 1357,1089 1359,1091 1359,1092 1362,1095 1362,1100 1361,1101 1361,1107 1360,1108 1360,1120 1359,1121 1359,1128 1358,1129 1358,1136 1357,1137 1357,1140 1356,1141 1356,1155 1357,1156 1357,1158 1358,1159 1358,1160 1359,1161 1359,1162 1361,1164 1361,1165 1364,1168 1365,1168 1369,1172 1370,1172 1371,1173 1372,1173 1374,1175 1375,1175 1376,1176 1377,1176 1378,1177 1379,1177 1380,1178 1381,1178 1382,1179 1383,1179 1384,1180 1386,1180 1387,1181 1389,1181 1390,1182 1394,1182 1395,1183 1400,1183 1401,1184 1421,1184 1422,1183 1431,1183 1432,1182 1434,1182 1435,1183 1440,1183 1441,1184 1448,1184 1449,1183 1458,1183 1459,1182 1465,1182 1466,1183 1468,1183 1469,1182 1475,1182 1476,1181 1481,1181 1482,1180 1485,1180 1486,1179 1487,1179 1489,1177 1490,1177 1494,1173 1494,1172 1498,1168 1498,1167 1502,1163 1502,1162 1505,1159 1505,1158 1507,1156 1507,1155 1508,1154 1508,1153 1509,1152 1509,1149 1510,1148 1510,1142 1509,1141 1509,1135 1508,1134 1508,1131 1509,1130 1509,1129 1510,1128 1510,1127 1511,1126 1511,1125 1512,1124 1512,1122 1513,1121 1513,1117 1514,1116 1514,1091 1515,1090 1515,1087 1516,1086 1524,1086 1525,1085 1532,1085 1533,1084 1539,1084 1540,1083 1545,1083 1546,1082 1548,1082 1549,1081 1550,1081 1552,1079 1553,1079 1555,1077 1556,1077 1561,1072 1562,1072 1565,1069 1565,1068 1567,1066 1567,1065 1568,1064 1568,1062 1569,1061 1569,1060 1570,1059 1570,1057 1571,1056 1571,1053 1572,1052 1572,1044 1573,1043 1573,1029 1572,1028 1572,1015 1571,1014 1571,1008 1570,1007 1570,1005 1569,1004 1569,1003 1567,1001 1567,1000 1566,999 1566,998 1563,995 1563,994 1561,992 1561,991 1553,983 1552,983 1550,981 1549,981 1547,979 1546,979 1544,977 1543,977 1542,976 1540,976 1539,975 1536,975 1535,974 1529,974 1528,973 1522,973 1521,974 1517,974 1516,975 1514,975 1513,976 1511,976 1510,977 1508,977 1507,978 1506,978 1504,980 1503,980 1497,986 1497,987 1493,991 1493,992 1492,993 1492,994 1491,995 1491,997 1490,998 1490,1001 1489,1002 1489,1004 1488,1005 1487,1005 1486,1004 1486,1003 1485,1002 1485,1000 1484,999 1484,997 1483,996 1483,995 1479,991 1479,990 1471,982 1470,982 1468,980 1467,980 1466,979 1465,979 1464,978 1463,978 1462,977 1461,977 1460,976 1459,976 1458,975 1457,975 1456,974 1454,974 1453,973 1452,973 1451,972 1450,972 1449,971 1446,971 1445,970 1442,970 1441,969 Z" fill="#000000" /><path class="DiffPath diff-2" d="M959,834 958,835 954,835 953,836 947,836 946,837 942,837 941,838 936,838 935,839 934,839 933,840 927,840 926,841 921,841 920,842 916,842 915,843 906,843 905,844 901,844 900,845 894,845 893,846 891,846 890,847 889,846 875,846 874,847 870,847 869,848 866,848 865,849 863,849 862,850 860,850 859,851 858,851 857,852 855,852 854,853 853,853 852,854 850,854 847,857 846,857 844,859 843,859 838,864 837,864 835,866 834,866 831,869 830,869 828,871 827,871 825,873 824,873 818,879 818,880 817,881 816,881 815,882 813,882 812,883 811,883 810,884 809,884 808,885 807,885 805,887 804,887 803,888 802,888 801,889 800,889 798,891 797,891 796,892 795,892 794,893 793,893 789,897 788,897 787,898 786,898 786,899 785,900 784,900 781,903 781,904 780,905 779,905 779,906 777,908 777,909 774,912 774,913 772,915 772,917 770,919 770,920 767,923 767,924 765,926 765,927 762,930 762,931 761,932 761,933 760,934 760,935 758,937 758,938 757,939 757,940 753,944 753,945 751,947 751,948 749,950 749,951 747,953 747,954 745,956 745,957 744,958 744,959 743,960 742,960 742,961 741,962 741,963 740,964 740,965 739,966 738,966 738,967 737,968 737,969 734,972 734,973 733,974 733,975 732,976 731,976 731,978 728,981 728,982 727,983 727,984 726,985 726,986 725,987 725,988 724,989 724,990 722,992 722,993 721,994 721,997 719,999 719,1002 718,1003 718,1004 717,1005 717,1008 716,1009 716,1010 715,1011 715,1014 714,1015 714,1018 713,1019 713,1020 712,1021 712,1025 711,1026 711,1036 712,1037 712,1045 713,1046 713,1063 714,1064 714,1076 715,1077 715,1097 716,1098 716,1099 717,1100 717,1102 718,1102 719,1103 719,1104 722,1107 722,1108 723,1109 722,1110 723,1111 723,1112 724,1113 724,1114 725,1115 725,1116 727,1118 727,1119 729,1121 730,1121 732,1123 733,1123 734,1124 735,1124 736,1125 756,1125 757,1124 759,1124 760,1123 762,1123 763,1122 765,1122 766,1121 767,1121 768,1120 769,1120 774,1115 776,1115 777,1114 779,1114 780,1113 783,1113 784,1112 788,1112 789,1111 795,1111 796,1110 798,1110 799,1109 804,1109 805,1108 807,1108 808,1107 811,1107 812,1106 815,1106 816,1105 818,1105 819,1104 822,1104 823,1103 824,1103 825,1102 827,1102 828,1101 829,1101 830,1100 832,1100 833,1099 834,1099 835,1098 836,1098 838,1096 839,1096 840,1095 841,1095 842,1094 843,1094 844,1093 845,1093 846,1092 847,1092 848,1091 849,1091 851,1089 852,1089 853,1088 854,1088 854,1087 855,1086 857,1086 859,1084 861,1084 863,1082 865,1082 866,1081 867,1081 869,1079 871,1079 873,1077 875,1077 876,1076 877,1076 878,1075 880,1075 881,1074 882,1074 883,1073 884,1073 885,1072 887,1072 888,1071 889,1071 890,1070 891,1070 892,1069 894,1069 895,1068 896,1068 897,1067 898,1067 899,1066 900,1066 901,1065 902,1065 903,1064 904,1064 905,1063 907,1063 908,1062 909,1062 910,1061 912,1061 913,1060 914,1060 916,1058 918,1058 919,1057 920,1057 921,1056 923,1056 925,1054 926,1054 928,1052 929,1052 930,1051 931,1051 933,1049 935,1049 938,1046 939,1046 940,1045 941,1045 943,1043 944,1043 947,1040 948,1040 948,1039 949,1038 950,1038 954,1034 955,1034 960,1029 961,1029 963,1027 964,1027 965,1026 966,1026 967,1025 968,1025 970,1023 971,1023 972,1022 973,1022 976,1019 977,1019 985,1011 985,1010 987,1008 987,1007 988,1006 989,1006 989,1005 990,1004 990,1003 995,998 995,997 996,996 996,995 997,994 997,993 998,992 999,992 1001,990 1001,989 1003,987 1003,986 1004,985 1005,985 1005,984 1008,981 1008,980 1010,978 1010,977 1012,975 1012,973 1014,971 1014,970 1015,969 1015,968 1017,966 1017,964 1019,962 1019,961 1020,960 1020,959 1021,958 1021,957 1022,956 1022,954 1023,953 1023,952 1024,951 1024,948 1025,947 1025,946 1026,945 1026,943 1027,942 1027,940 1028,939 1028,936 1029,935 1029,932 1030,931 1030,929 1031,928 1031,924 1032,923 1032,919 1033,918 1033,888 1032,887 1032,882 1031,881 1031,873 1030,872 1030,870 1029,869 1029,867 1028,866 1028,864 1026,862 1026,859 1024,857 1024,856 1021,853 1021,852 1016,847 1016,846 1014,844 1013,844 1009,840 1008,840 1007,839 1006,839 1005,838 1004,838 1003,837 1002,837 1001,836 998,836 997,835 992,835 991,834 Z" fill="#000000" /><path class="DiffPath diff-3" d="M76,665 75,666 62,666 61,667 58,667 57,668 54,668 53,669 52,669 51,670 50,670 49,671 48,671 47,672 46,672 45,673 44,673 42,675 41,675 39,677 38,677 30,685 30,686 27,689 27,690 25,692 25,693 24,694 24,695 23,696 23,697 22,698 22,700 21,701 21,705 20,706 20,714 19,715 19,718 18,719 18,724 19,725 19,728 20,729 20,736 19,737 19,750 20,751 20,753 21,754 21,760 20,761 20,766 21,767 21,771 22,772 22,777 23,778 23,781 24,782 24,784 25,785 25,787 26,788 26,790 27,791 27,792 29,794 29,795 32,798 33,798 35,800 36,800 37,801 38,801 40,803 40,804 43,807 43,808 44,809 45,809 49,813 50,813 51,814 52,814 53,815 54,815 55,816 56,816 57,817 58,817 59,818 60,818 61,819 62,819 63,820 64,820 65,821 66,821 67,822 69,822 70,823 71,823 72,824 74,824 75,825 77,825 78,826 79,826 80,827 83,827 84,828 87,828 88,829 93,829 94,830 99,830 100,831 104,831 105,832 110,832 111,833 115,833 116,834 120,834 121,835 124,835 125,836 128,836 129,837 132,837 133,838 135,838 136,839 140,839 141,840 144,840 145,841 148,841 149,842 151,842 152,843 155,843 156,844 159,844 160,845 163,845 164,846 166,846 167,847 170,847 171,848 175,848 176,849 179,849 180,850 182,850 183,851 186,851 187,852 191,852 192,853 196,853 197,854 200,854 201,855 203,855 204,856 209,856 210,857 214,857 215,858 218,858 219,859 222,859 223,860 228,860 229,861 240,861 241,860 245,860 246,859 248,859 249,858 250,858 251,857 252,857 253,856 254,856 255,855 256,855 263,848 263,847 265,845 265,844 266,843 266,840 267,839 267,817 266,816 266,813 265,812 265,811 264,810 264,808 263,807 263,806 261,804 261,803 259,801 259,800 255,796 255,795 252,792 252,791 249,788 249,787 247,785 247,784 245,782 245,781 243,779 243,778 241,776 241,775 239,773 239,772 234,767 234,766 230,762 229,762 222,755 221,755 220,754 219,754 218,753 217,753 216,752 215,752 189,726 188,726 184,722 183,722 181,720 180,720 178,718 177,718 176,717 175,717 173,715 172,715 170,713 169,713 168,712 166,712 165,711 164,711 162,709 161,709 160,708 159,708 158,707 157,707 155,705 154,705 153,704 152,704 151,703 150,703 149,702 148,702 147,701 146,701 144,699 143,699 142,698 141,698 140,697 139,697 138,696 137,696 135,694 134,694 133,693 132,693 131,692 129,692 127,690 126,690 124,688 123,688 121,686 120,686 117,683 116,683 115,682 114,682 112,680 111,680 100,669 99,669 98,668 97,668 96,667 94,667 93,666 90,666 89,665 Z" fill="#000000" /><path class="DiffPath diff-4" d="M868,476 867,477 863,477 862,478 861,478 860,479 858,479 857,480 856,480 855,481 854,481 852,483 851,483 850,484 849,484 847,486 846,486 845,487 844,487 841,490 840,490 840,491 837,494 837,495 836,496 836,497 835,498 835,501 834,502 834,510 832,512 832,513 830,515 830,516 829,517 829,518 827,520 827,521 826,522 826,523 825,524 825,525 824,526 824,528 823,529 823,531 822,532 822,537 821,538 821,541 822,542 822,546 823,547 823,549 824,550 824,551 825,552 825,553 826,554 826,555 831,560 832,560 833,561 834,561 835,562 836,562 837,563 841,563 842,564 844,564 845,563 849,563 850,562 852,562 853,561 854,561 857,558 858,558 858,557 861,554 861,553 862,552 862,550 863,549 863,545 864,544 864,542 863,541 863,540 867,536 868,536 869,537 869,543 870,544 870,547 871,548 871,549 872,550 872,551 878,557 879,557 880,558 881,558 882,559 884,559 885,560 894,560 895,559 897,559 898,558 899,558 900,557 901,557 907,551 907,550 908,549 908,548 909,547 909,544 910,543 910,540 911,539 911,531 910,530 910,527 909,526 909,523 908,522 908,521 907,520 907,518 905,516 905,515 897,507 897,506 898,505 898,498 897,497 897,495 896,494 896,492 895,491 895,490 888,483 887,483 885,481 884,481 882,479 881,479 880,478 878,478 877,477 872,477 871,476 Z" fill="#000000" /><path class="DiffPath diff-5" d="M1096,468 1095,469 1090,469 1089,470 1084,470 1083,471 1076,471 1075,472 1072,472 1071,473 1069,473 1068,474 1066,474 1065,475 1063,475 1062,476 1061,476 1060,477 1059,477 1058,478 1057,478 1054,481 1053,481 1050,484 1049,484 1047,486 1046,486 1043,489 1042,489 1035,496 1034,496 1023,507 1022,507 1019,510 1018,510 1014,514 1013,514 1010,517 1009,517 1007,519 1007,520 1005,522 1005,523 1004,524 1004,525 1003,526 1003,528 1002,529 1002,539 1003,540 1003,542 1004,543 1004,544 1005,545 1005,546 1012,553 1013,553 1015,555 1016,555 1017,556 1018,556 1019,557 1022,557 1023,558 1036,558 1037,557 1040,557 1041,556 1043,556 1044,555 1048,555 1049,554 1052,554 1053,553 1055,553 1056,552 1058,552 1059,551 1060,551 1061,550 1063,550 1064,549 1066,549 1067,548 1069,548 1070,547 1072,547 1073,546 1077,546 1078,545 1086,545 1087,544 1124,544 1125,545 1132,545 1133,546 1138,546 1139,547 1143,547 1145,549 1146,549 1147,550 1149,550 1150,551 1151,551 1152,552 1154,552 1155,553 1157,553 1158,554 1160,554 1161,555 1163,555 1164,556 1166,556 1167,557 1169,557 1170,558 1178,558 1179,559 1183,559 1184,560 1189,560 1190,561 1214,561 1215,560 1217,560 1218,559 1219,559 1221,557 1222,557 1224,555 1224,554 1226,552 1226,551 1227,550 1227,549 1228,548 1228,546 1229,545 1229,537 1228,536 1228,533 1227,532 1227,531 1226,530 1226,529 1220,523 1219,523 1218,522 1217,522 1216,521 1214,521 1213,520 1212,520 1209,517 1209,516 1208,515 1208,514 1207,513 1207,512 1205,510 1205,509 1202,506 1202,505 1196,499 1196,498 1185,487 1184,487 1183,486 1182,486 1181,485 1180,485 1179,484 1178,484 1177,483 1176,483 1175,482 1174,482 1173,481 1172,481 1171,480 1170,480 1169,479 1168,479 1167,478 1165,478 1164,477 1161,477 1160,476 1157,476 1156,475 1153,475 1152,474 1150,474 1149,473 1146,473 1145,472 1143,472 1142,471 1139,471 1138,470 1136,470 1135,469 1130,469 1129,468 Z" fill="#000000" /><path class="DiffPath diff-6" d="M84,296 83,297 76,297 75,298 71,298 70,299 66,299 65,300 63,300 62,301 59,301 58,302 56,302 55,303 54,303 53,304 52,304 51,305 50,305 49,306 48,306 45,309 44,309 41,312 40,312 37,315 37,316 35,318 35,319 34,320 34,321 33,322 33,324 32,325 32,331 31,332 31,334 30,335 30,336 29,337 29,346 28,347 28,368 29,369 29,374 30,375 30,377 31,378 31,380 32,381 32,383 33,384 33,385 35,387 35,388 41,394 42,394 44,396 45,396 46,397 47,397 48,398 50,398 51,399 54,399 55,400 85,400 86,399 92,399 93,398 98,398 99,397 106,397 107,396 116,396 117,395 125,395 126,394 130,394 131,393 133,393 134,392 135,392 136,391 137,391 138,390 139,390 140,389 141,389 143,387 144,387 145,386 146,386 147,385 148,385 149,384 150,384 162,372 162,371 167,366 167,365 168,364 168,363 170,361 170,360 171,359 171,357 172,356 172,354 173,353 173,341 172,340 172,338 171,337 171,336 170,335 170,334 168,332 168,330 167,329 167,328 166,327 166,326 165,325 165,324 164,323 164,322 161,319 161,318 154,311 153,311 149,307 148,307 146,305 145,305 144,304 143,304 142,303 141,303 140,302 138,302 137,301 134,301 133,300 128,300 127,299 122,299 121,298 119,298 118,297 113,297 112,296 Z" fill="#000000" /><path class="DiffPath diff-7" d="M710,283 709,284 701,284 700,285 695,285 694,286 690,286 689,287 687,287 685,289 684,289 679,294 679,295 677,297 677,299 676,300 676,312 677,313 677,315 678,316 678,317 681,320 681,321 682,321 685,324 686,324 687,325 688,325 689,326 692,326 693,327 699,327 700,326 703,326 704,325 711,325 712,324 714,326 714,330 715,331 715,337 716,338 716,343 717,344 717,349 718,350 718,354 719,355 719,358 720,359 720,364 721,365 721,366 722,367 722,368 723,369 723,370 724,371 724,372 725,373 725,374 727,376 727,377 731,381 732,381 734,383 735,383 736,384 738,384 739,385 742,385 743,386 753,386 754,385 757,385 758,384 759,384 760,383 761,383 762,382 763,382 764,381 765,381 777,369 777,368 778,367 778,366 779,365 779,363 780,362 780,360 781,359 781,350 780,349 780,347 779,346 779,345 778,344 778,343 773,338 772,338 771,337 770,337 769,336 768,336 767,335 764,335 763,334 757,334 756,333 756,329 755,328 755,322 754,321 754,317 753,316 753,313 752,312 752,310 751,309 751,308 750,307 750,306 749,305 749,304 748,303 748,302 747,301 747,300 744,297 744,296 742,294 742,293 737,288 736,288 734,286 733,286 732,285 731,285 730,284 727,284 726,283 Z" fill="#000000" /><path class="DiffPath diff-8" d="M942,227 941,228 940,228 939,229 938,229 937,230 936,230 931,235 931,236 929,238 929,240 928,241 928,245 927,246 927,248 925,250 901,250 900,251 878,251 877,252 874,252 873,253 871,253 870,254 869,254 868,255 867,255 865,257 864,257 863,258 863,259 861,261 861,262 860,263 860,264 859,265 859,267 858,268 858,276 859,277 859,280 860,281 860,282 861,283 861,284 866,289 867,289 869,291 871,291 872,292 875,292 876,293 882,293 883,292 916,292 917,291 931,291 932,290 941,290 942,289 950,289 951,288 983,288 984,287 1014,287 1015,288 1026,288 1027,287 1030,287 1031,286 1032,286 1033,285 1034,285 1040,279 1040,278 1041,277 1041,276 1042,275 1042,274 1043,273 1043,262 1042,261 1042,259 1041,258 1041,257 1038,254 1038,253 1037,252 1036,252 1034,250 1033,250 1032,249 1031,249 1030,248 1027,248 1026,247 970,247 969,246 969,243 968,242 968,240 967,239 967,238 966,237 966,236 959,229 958,229 957,228 955,228 954,227 Z" fill="#000000" /><path class="DiffPath diff-9" d="M139,24 138,25 134,25 133,26 129,26 128,27 126,27 125,28 124,28 123,29 122,29 121,30 119,30 118,31 116,31 115,32 112,32 111,33 110,33 109,34 108,34 107,35 106,35 100,41 100,42 99,43 99,44 98,45 98,47 97,48 97,56 98,57 98,59 99,60 99,63 100,64 100,66 101,67 101,69 102,70 102,71 103,72 103,73 105,75 105,76 107,78 108,78 110,80 111,80 113,82 114,82 115,83 117,83 118,84 120,84 121,85 122,85 123,86 125,86 126,87 129,87 130,88 134,88 135,89 139,89 140,90 144,90 145,91 150,91 151,92 157,92 158,93 179,93 180,92 186,92 187,91 191,91 192,90 195,90 196,89 199,89 200,88 202,88 203,87 204,87 205,86 206,86 207,85 208,85 209,84 210,84 212,82 213,82 214,81 215,81 217,79 218,79 226,71 226,70 228,68 228,67 229,66 229,65 230,64 230,62 231,61 231,47 230,46 230,45 229,44 229,43 228,42 228,41 226,39 226,38 222,34 221,34 218,31 217,31 216,30 215,30 214,29 213,29 212,28 211,28 210,27 208,27 207,26 205,26 204,25 194,25 193,24 Z" fill="#000000" /></svg>