<?xml version="1.0" encoding="utf-8" ?>
<svg baseProfile="full" height="100%" version="1.1" viewBox="0 0 1788 1320" width="100%" xmlns="http://www.w3.org/2000/svg" xmlns:ev="http://www.w3.org/2001/xml-events" xmlns:xlink="http://www.w3.org/1999/xlink"><defs /><path class="DiffPath diff-0" d="M214,1200 213,1201 206,1201 205,1202 200,1202 199,1203 191,1203 190,1204 188,1204 187,1205 186,1205 185,1206 184,1206 177,1213 177,1214 175,1216 175,1217 174,1218 174,1219 173,1220 173,1221 172,1222 172,1223 171,1224 171,1226 170,1227 170,1230 169,1231 169,1232 168,1233 168,1235 167,1236 167,1238 166,1239 166,1240 165,1241 165,1243 164,1244 164,1246 163,1247 163,1249 162,1250 162,1252 161,1253 161,1255 160,1256 160,1261 159,1262 159,1268 158,1269 158,1274 157,1275 157,1284 156,1285 156,1290 155,1291 155,1296 154,1297 154,1308 153,1309 153,1319 285,1319 285,1300 284,1299 284,1292 283,1291 283,1286 282,1285 282,1281 281,1280 281,1277 280,1276 280,1274 279,1273 279,1270 278,1269 278,1266 277,1265 277,1260 276,1259 276,1255 275,1254 275,1251 274,1250 274,1248 273,1247 273,1245 272,1244 272,1242 271,1241 271,1240 270,1239 270,1238 269,1237 269,1236 268,1235 268,1234 267,1233 267,1232 264,1229 264,1228 260,1224 260,1223 253,1216 253,1215 250,1212 249,1212 244,1207 243,1207 242,1206 241,1206 240,1205 239,1205 238,1204 236,1204 235,1203 234,1203 233,1202 231,1202 230,1201 217,1201 216,1200 Z" fill="#000000" /><path class="DiffPath diff-1" d="M1138,857 1137,858 1129,858 1128,859 1121,859 1120,860 1116,860 1115,861 1113,861 1112,862 1111,862 1110,863 1108,863 1107,864 1106,864 1104,866 1103,866 1099,870 1098,870 1085,883 1085,884 1083,886 1083,888 1081,890 1081,892 1080,893 1080,895 1079,896 1079,906 1078,907 1078,910 1077,911 1077,915 1078,916 1078,918 1079,919 1079,921 1080,922 1080,924 1081,925 1081,926 1082,927 1082,928 1085,931 1085,932 1093,940 1094,940 1096,942 1097,942 1098,943 1099,943 1100,944 1101,944 1102,945 1104,945 1108,949 1109,949 1110,950 1113,950 1114,951 1121,951 1122,952 1135,952 1136,951 1143,951 1144,950 1152,950 1153,949 1154,949 1155,950 1156,949 1160,949 1161,948 1163,948 1164,947 1166,947 1167,946 1168,946 1169,945 1170,945 1171,944 1172,944 1173,943 1174,943 1175,942 1177,942 1178,941 1179,941 1180,940 1181,940 1182,939 1184,939 1187,936 1188,936 1192,932 1193,932 1195,930 1196,930 1197,929 1197,928 1199,926 1199,925 1200,924 1200,922 1201,921 1201,919 1202,918 1202,917 1203,916 1203,914 1204,913 1204,904 1203,903 1203,901 1202,900 1202,895 1201,894 1201,891 1200,890 1200,888 1199,887 1199,886 1198,885 1198,884 1186,872 1185,872 1178,865 1177,865 1175,863 1173,863 1172,862 1169,862 1168,861 1167,861 1166,860 1163,860 1162,859 1159,859 1158,858 1153,858 1152,857 Z" fill="#000000" /><path class="DiffPath diff-2" d="M547,560 546,561 533,561 532,562 528,562 527,563 524,563 523,564 521,564 520,565 517,565 516,566 513,566 512,567 509,567 508,568 506,568 505,569 503,569 502,570 501,570 500,571 499,571 498,572 497,572 496,573 494,573 493,574 491,574 490,575 487,575 486,576 484,576 483,577 482,577 481,578 480,578 479,579 478,579 477,580 476,580 474,582 473,582 469,586 468,586 467,587 466,587 465,588 464,588 463,589 461,589 460,590 459,590 458,591 457,591 454,594 453,594 450,597 449,597 447,599 446,599 445,600 444,600 442,602 441,602 438,605 437,605 428,614 428,615 425,618 425,619 423,621 423,622 420,625 420,626 417,629 417,630 415,632 415,633 414,634 414,635 413,636 413,637 412,638 412,640 411,641 411,642 410,643 410,644 409,645 409,647 408,648 408,649 407,650 407,652 406,653 406,655 405,656 405,657 404,658 404,659 403,660 403,661 402,662 402,663 401,664 401,666 400,667 400,671 399,672 399,678 398,679 398,684 399,685 399,703 400,704 400,713 401,714 401,720 402,721 402,725 403,726 403,742 404,743 404,749 405,750 405,756 406,757 406,766 407,767 407,772 408,773 408,777 409,778 409,781 410,782 410,785 411,786 411,788 412,789 412,792 413,793 413,795 414,796 414,797 415,798 415,800 416,801 416,803 417,804 417,805 418,806 418,807 419,808 419,809 420,810 420,814 421,815 421,816 422,817 422,819 423,820 423,821 424,822 424,823 426,825 426,826 428,828 428,829 430,831 430,832 432,834 432,835 433,836 433,837 434,838 434,839 438,843 438,844 443,849 443,850 444,851 444,852 445,853 445,854 449,858 449,859 455,865 456,865 460,869 461,869 462,870 463,870 465,872 466,872 468,874 469,874 470,875 471,875 472,876 473,876 474,877 475,877 476,878 477,878 479,880 480,880 481,881 482,881 483,882 484,882 485,883 486,883 487,884 488,884 489,885 490,885 491,886 492,886 494,888 496,888 497,889 498,889 499,890 501,890 502,891 505,891 506,892 509,892 510,893 514,893 515,894 522,894 523,895 533,895 534,896 557,896 558,897 567,897 568,896 573,896 574,895 577,895 578,894 582,894 583,893 588,893 589,892 593,892 594,891 597,891 598,890 600,890 601,889 602,889 603,888 605,888 606,887 607,887 608,886 609,886 611,884 612,884 613,883 614,883 616,881 617,881 619,879 620,879 626,873 627,873 628,872 628,871 633,866 633,865 634,864 634,863 635,862 635,861 636,860 636,859 637,858 637,857 638,856 638,854 639,853 639,851 640,850 640,848 641,847 641,841 642,840 642,833 643,832 643,825 644,824 644,819 645,818 645,807 646,806 646,768 645,767 645,746 644,745 644,701 643,700 643,675 642,674 642,671 641,670 641,667 640,666 640,665 639,664 639,660 638,659 638,654 637,653 637,648 636,647 636,644 635,643 635,639 634,638 634,636 633,635 633,633 632,632 632,631 631,630 631,628 630,627 630,626 629,625 629,624 627,622 627,621 626,620 626,619 624,617 624,616 621,613 621,612 618,609 618,608 616,606 616,605 614,603 614,602 611,599 611,598 609,596 609,595 608,594 608,593 607,592 607,591 605,589 605,588 600,583 600,582 599,581 598,581 596,579 596,578 590,572 589,572 587,570 586,570 584,568 583,568 582,567 581,567 579,565 578,565 577,564 575,564 574,563 571,563 570,562 566,562 565,561 557,561 556,560 Z" fill="#000000" /><path class="DiffPath diff-3" d="M1105,419 1104,420 1102,420 1101,421 1099,421 1098,422 1097,422 1095,424 1094,424 1087,431 1087,432 1084,435 1084,436 1083,437 1083,438 1082,439 1082,440 1081,441 1081,444 1080,445 1080,458 1081,459 1081,461 1082,462 1082,464 1083,465 1083,466 1084,467 1084,468 1086,470 1086,471 1088,473 1089,473 1092,476 1093,476 1094,477 1095,477 1096,478 1097,478 1098,479 1099,479 1100,480 1103,480 1104,481 1129,481 1130,480 1133,480 1134,479 1135,479 1136,478 1137,478 1138,477 1139,477 1140,476 1141,476 1144,473 1144,472 1146,470 1146,469 1147,468 1147,466 1148,465 1148,463 1149,462 1149,458 1150,457 1150,454 1151,453 1151,451 1152,450 1152,443 1151,442 1151,440 1150,439 1150,438 1149,437 1149,436 1147,434 1147,433 1143,429 1142,429 1141,428 1140,428 1138,426 1137,426 1136,425 1135,425 1134,424 1133,424 1132,423 1131,423 1130,422 1129,422 1128,421 1126,421 1125,420 1122,420 1121,419 Z" fill="#000000" /><path class="DiffPath diff-4" d="M114,416 113,417 105,417 104,418 102,418 101,419 100,419 99,420 97,420 96,421 93,421 92,422 89,422 88,423 85,423 84,424 82,424 81,425 80,425 79,426 78,426 77,427 76,427 75,428 74,428 73,429 72,429 68,433 67,433 64,436 64,437 59,442 59,443 58,444 58,445 57,446 57,447 55,449 55,451 54,452 54,454 53,455 53,458 52,459 52,462 51,463 51,467 50,468 50,474 49,475 49,481 48,482 48,510 49,511 49,513 50,514 50,516 51,517 51,519 53,521 53,522 60,529 61,529 63,531 64,531 66,533 67,533 69,535 70,535 71,536 72,536 73,537 75,537 76,538 78,538 79,539 81,539 82,540 85,540 86,541 91,541 92,542 101,542 102,543 106,543 107,542 117,542 118,541 126,541 127,540 130,540 131,539 133,539 134,538 136,538 137,537 138,537 139,536 140,536 141,535 142,535 143,534 144,534 147,531 148,531 151,528 152,528 154,526 155,526 156,525 157,525 159,523 160,523 164,519 164,518 166,516 166,515 168,513 168,512 169,511 169,510 170,509 170,508 171,507 171,505 172,504 172,503 173,502 173,499 174,498 174,495 175,494 175,492 176,491 176,488 177,487 177,481 178,480 178,470 177,469 177,464 176,463 176,460 175,459 175,457 174,456 174,454 172,452 172,451 171,450 171,449 170,448 170,447 169,446 169,445 167,443 167,442 163,438 163,437 153,427 152,427 151,426 149,426 148,425 145,425 144,424 141,424 139,422 137,422 136,421 135,421 134,420 132,420 131,419 129,419 128,418 125,418 124,417 120,417 119,416 Z" fill="#000000" /><path class="DiffPath diff-5" d="M1510,179 1509,180 1508,180 1504,184 1504,186 1501,189 1501,190 1500,191 1492,191 1491,192 1479,192 1478,193 1464,193 1463,194 1433,194 1432,193 1405,193 1404,192 1393,192 1392,191 1388,191 1387,190 1384,190 1383,189 1379,189 1378,190 1375,190 1374,191 1373,191 1371,193 1370,193 1369,194 1369,195 1367,197 1367,199 1366,200 1366,210 1367,211 1367,229 1368,230 1368,234 1369,235 1369,240 1370,241 1370,244 1371,245 1371,247 1372,248 1372,249 1373,250 1373,251 1374,252 1374,253 1375,254 1375,255 1376,256 1376,257 1382,263 1383,263 1384,264 1385,264 1387,266 1388,266 1389,267 1391,267 1392,268 1394,268 1395,269 1398,269 1399,270 1402,270 1403,271 1410,271 1411,272 1421,272 1422,273 1427,273 1428,274 1432,274 1433,275 1440,275 1441,276 1448,276 1450,278 1451,278 1453,280 1454,280 1456,282 1457,282 1459,284 1460,284 1465,289 1466,289 1468,291 1469,291 1470,292 1471,292 1472,293 1473,293 1474,294 1475,294 1476,295 1477,295 1478,296 1479,296 1480,297 1481,297 1482,298 1483,298 1484,299 1486,299 1487,300 1489,300 1490,301 1499,301 1500,302 1521,302 1522,301 1525,301 1526,300 1527,300 1528,299 1529,299 1534,294 1534,293 1536,291 1536,290 1537,289 1537,285 1538,284 1538,270 1539,269 1539,267 1540,266 1540,245 1539,244 1539,240 1538,239 1538,236 1537,235 1537,233 1536,232 1536,230 1535,229 1535,228 1534,227 1534,225 1533,224 1533,221 1532,220 1532,214 1531,213 1531,205 1530,204 1530,200 1529,199 1529,197 1528,196 1528,193 1527,192 1527,191 1526,190 1526,189 1525,188 1525,186 1524,185 1524,184 1520,180 1518,180 1517,179 Z" fill="#000000" /><path class="DiffPath diff-6" d="M1208,100 1207,101 1202,101 1201,102 1199,102 1198,103 1196,103 1195,104 1194,104 1193,105 1191,105 1190,106 1189,106 1187,108 1186,108 1183,111 1182,111 1180,113 1180,114 1175,119 1175,120 1173,122 1173,123 1170,126 1170,127 1168,129 1168,130 1167,131 1167,132 1166,133 1166,134 1157,143 1157,144 1155,146 1155,147 1153,149 1153,150 1152,151 1152,152 1151,153 1151,154 1150,155 1150,157 1149,158 1149,159 1148,160 1148,162 1147,163 1147,166 1146,167 1146,169 1145,170 1145,173 1144,174 1144,178 1143,179 1143,183 1142,184 1142,189 1141,190 1141,203 1142,204 1142,209 1143,210 1143,212 1144,213 1144,215 1145,216 1145,217 1146,218 1146,219 1154,227 1155,227 1156,228 1157,228 1158,229 1159,229 1160,230 1161,230 1162,231 1163,231 1164,232 1165,232 1166,233 1168,233 1169,234 1171,234 1172,235 1175,235 1176,236 1178,236 1179,237 1184,237 1185,238 1194,238 1195,239 1200,239 1201,240 1205,240 1206,241 1209,241 1210,242 1213,242 1214,243 1217,243 1218,244 1220,244 1221,245 1225,245 1226,246 1229,246 1230,247 1233,247 1234,248 1239,248 1240,249 1246,249 1247,250 1264,250 1265,249 1270,249 1271,248 1277,248 1278,247 1282,247 1283,246 1285,246 1287,244 1289,244 1290,243 1291,243 1297,237 1298,237 1298,236 1301,233 1301,232 1303,230 1303,229 1304,228 1304,226 1305,225 1305,223 1306,222 1306,221 1307,220 1307,215 1308,214 1308,210 1309,209 1309,189 1308,188 1308,184 1307,183 1307,179 1306,178 1306,174 1305,173 1305,171 1304,170 1304,167 1303,166 1303,164 1302,163 1302,161 1301,160 1301,158 1300,157 1300,156 1299,155 1299,154 1298,153 1298,152 1297,151 1297,149 1296,148 1296,147 1294,145 1294,144 1293,143 1293,142 1292,141 1292,140 1291,139 1291,138 1287,134 1287,133 1284,130 1284,129 1280,125 1280,124 1268,112 1267,112 1266,111 1265,111 1263,109 1262,109 1261,108 1260,108 1259,107 1258,107 1257,106 1256,106 1255,105 1254,105 1253,104 1251,104 1250,103 1246,103 1245,102 1241,102 1240,101 1235,101 1234,100 Z" fill="#000000" /></svg>