<?xml version="1.0" encoding="utf-8" ?>
<svg baseProfile="full" height="100%" version="1.1" viewBox="0 0 3973 2933" width="100%" xmlns="http://www.w3.org/2000/svg" xmlns:ev="http://www.w3.org/2001/xml-events" xmlns:xlink="http://www.w3.org/1999/xlink"><defs /><path class="DiffPath diff-0" d="M486,2668 485,2669 479,2669 478,2670 474,2670 473,2671 470,2671 469,2672 468,2672 467,2673 465,2673 464,2674 462,2674 461,2675 460,2675 459,2676 458,2676 457,2677 456,2677 455,2678 454,2678 452,2680 451,2680 449,2682 448,2682 447,2683 446,2683 445,2684 443,2684 442,2685 441,2685 440,2686 439,2686 438,2687 437,2687 436,2688 435,2688 433,2690 432,2690 431,2691 430,2691 427,2694 426,2694 422,2698 421,2698 410,2709 410,2710 408,2712 408,2713 407,2714 406,2714 406,2715 405,2716 405,2717 403,2719 403,2720 402,2721 402,2722 401,2723 401,2724 399,2726 399,2727 398,2728 398,2729 397,2730 397,2731 396,2732 396,2733 395,2734 395,2735 394,2736 394,2737 392,2739 392,2740 391,2741 391,2742 389,2744 389,2745 387,2747 387,2748 383,2752 383,2754 381,2756 381,2758 379,2760 379,2762 378,2763 378,2764 377,2765 377,2767 375,2769 375,2770 374,2771 374,2772 373,2773 373,2774 372,2775 372,2777 371,2778 371,2780 370,2781 370,2783 369,2784 369,2786 368,2787 368,2789 367,2790 367,2793 366,2794 366,2796 365,2797 365,2802 364,2803 364,2805 363,2806 364,2807 363,2808 363,2810 362,2811 362,2813 361,2814 361,2817 360,2818 359,2818 359,2819 358,2820 358,2821 356,2823 356,2824 355,2825 355,2826 354,2827 354,2828 353,2829 353,2832 352,2833 352,2837 351,2838 351,2845 350,2846 350,2852 349,2853 349,2861 348,2862 348,2886 347,2887 347,2896 346,2897 346,2904 345,2905 345,2911 344,2912 344,2923 343,2924 343,2932 636,2932 636,2911 635,2910 635,2889 634,2888 634,2881 633,2880 633,2874 632,2873 632,2866 631,2865 631,2862 630,2861 630,2856 629,2855 629,2851 628,2850 628,2845 627,2844 627,2842 626,2841 626,2838 625,2837 625,2834 624,2833 624,2831 623,2830 623,2827 622,2826 622,2824 621,2823 621,2820 620,2819 620,2815 619,2814 619,2811 618,2810 618,2806 617,2805 617,2800 616,2799 616,2793 615,2792 615,2788 614,2787 614,2786 613,2785 613,2782 612,2781 612,2778 611,2777 611,2775 610,2774 610,2772 609,2771 609,2768 608,2767 608,2765 607,2764 607,2763 606,2762 606,2761 605,2760 605,2759 604,2758 604,2757 603,2756 603,2754 602,2753 602,2752 601,2751 601,2750 600,2749 600,2748 599,2747 599,2746 598,2745 598,2744 596,2742 596,2741 595,2740 595,2739 594,2738 594,2737 593,2736 593,2735 590,2732 590,2731 587,2728 587,2727 583,2723 583,2722 578,2717 578,2716 565,2703 565,2702 550,2687 549,2687 545,2683 544,2683 542,2681 541,2681 540,2680 539,2680 538,2679 537,2679 536,2678 535,2678 534,2677 533,2677 532,2676 531,2676 530,2675 529,2675 528,2674 526,2674 525,2673 523,2673 522,2672 521,2672 520,2671 518,2671 517,2670 515,2670 514,2669 512,2669 511,2668 Z" fill="#000000" /><path class="DiffPath diff-1" d="M2537,1912 2536,1913 2530,1913 2529,1914 2524,1914 2523,1915 2518,1915 2517,1916 2512,1916 2511,1917 2503,1917 2502,1918 2500,1918 2499,1919 2497,1919 2496,1920 2494,1920 2493,1921 2490,1921 2489,1922 2485,1922 2484,1923 2482,1923 2481,1924 2480,1924 2479,1925 2478,1925 2477,1926 2474,1926 2473,1927 2472,1927 2471,1928 2470,1928 2469,1929 2468,1929 2467,1930 2465,1930 2464,1931 2462,1931 2461,1932 2460,1932 2459,1933 2458,1933 2457,1934 2456,1934 2454,1936 2451,1936 2449,1938 2448,1938 2446,1940 2444,1940 2441,1943 2440,1943 2437,1946 2436,1946 2432,1950 2431,1950 2419,1962 2419,1963 2416,1966 2416,1967 2415,1968 2415,1969 2414,1970 2414,1971 2412,1973 2412,1974 2411,1975 2411,1977 2410,1978 2410,1979 2409,1980 2409,1981 2407,1983 2407,1985 2406,1986 2406,1989 2405,1990 2405,1991 2404,1992 2404,1994 2403,1995 2403,1996 2402,1997 2402,2008 2401,2009 2401,2016 2402,2017 2402,2023 2401,2024 2402,2025 2402,2028 2403,2029 2403,2032 2404,2033 2404,2035 2405,2036 2405,2037 2406,2038 2406,2042 2407,2043 2407,2044 2408,2045 2408,2046 2410,2048 2410,2049 2411,2050 2411,2052 2412,2053 2412,2054 2413,2055 2413,2056 2415,2058 2415,2060 2418,2063 2418,2064 2422,2068 2422,2069 2427,2074 2428,2074 2431,2077 2432,2077 2434,2079 2435,2079 2436,2080 2437,2080 2440,2083 2441,2083 2442,2084 2443,2084 2445,2086 2446,2086 2448,2088 2449,2088 2450,2089 2452,2089 2454,2091 2455,2091 2456,2092 2457,2092 2458,2093 2460,2093 2461,2094 2464,2094 2465,2095 2467,2095 2468,2096 2470,2096 2471,2097 2473,2097 2474,2098 2479,2098 2480,2099 2483,2099 2484,2100 2488,2100 2489,2101 2497,2101 2498,2102 2563,2102 2564,2101 2572,2101 2573,2100 2575,2100 2576,2099 2581,2099 2582,2098 2588,2098 2589,2097 2592,2097 2593,2096 2594,2096 2595,2095 2597,2095 2598,2094 2601,2094 2602,2093 2606,2093 2608,2091 2610,2091 2611,2090 2612,2090 2613,2089 2614,2089 2615,2088 2616,2088 2619,2085 2620,2085 2621,2084 2622,2084 2625,2081 2626,2081 2632,2075 2633,2075 2638,2070 2639,2070 2640,2069 2640,2068 2643,2065 2644,2065 2645,2064 2645,2063 2648,2060 2649,2060 2649,2059 2652,2056 2653,2056 2654,2055 2654,2054 2655,2053 2655,2052 2656,2051 2657,2051 2657,2050 2658,2049 2658,2047 2659,2046 2660,2046 2660,2045 2661,2044 2661,2043 2663,2041 2663,2038 2664,2037 2664,2035 2665,2034 2665,2032 2666,2031 2666,2028 2667,2027 2667,2008 2666,2007 2666,2005 2665,2004 2665,2002 2664,2001 2664,1999 2663,1998 2663,1995 2662,1994 2662,1993 2660,1991 2660,1990 2658,1988 2658,1987 2657,1986 2657,1985 2656,1984 2656,1983 2654,1981 2654,1980 2653,1979 2653,1977 2652,1976 2652,1975 2651,1974 2651,1973 2649,1971 2649,1969 2646,1966 2646,1965 2644,1963 2644,1962 2643,1961 2643,1960 2640,1957 2640,1956 2636,1952 2636,1951 2630,1945 2630,1944 2626,1940 2626,1939 2620,1933 2619,1933 2616,1930 2615,1930 2611,1926 2609,1926 2606,1923 2605,1923 2604,1922 2603,1922 2602,1921 2601,1921 2600,1920 2599,1920 2597,1918 2595,1918 2594,1917 2591,1917 2590,1916 2589,1916 2588,1915 2585,1915 2584,1914 2582,1914 2581,1913 2578,1913 2577,1912 Z" fill="#000000" /><path class="DiffPath diff-2" d="M1211,1258 1210,1259 1206,1259 1205,1260 1202,1260 1201,1261 1199,1261 1198,1262 1196,1262 1195,1263 1189,1263 1188,1264 1186,1264 1185,1265 1183,1265 1182,1266 1180,1266 1179,1267 1176,1267 1175,1268 1171,1268 1170,1269 1164,1269 1163,1270 1159,1270 1158,1271 1155,1271 1154,1272 1150,1272 1149,1273 1146,1273 1145,1274 1142,1274 1141,1275 1139,1275 1138,1276 1136,1276 1135,1277 1129,1277 1128,1278 1126,1278 1125,1279 1123,1279 1122,1280 1120,1280 1119,1281 1116,1281 1115,1282 1113,1282 1112,1283 1110,1283 1109,1284 1108,1284 1107,1285 1105,1285 1104,1286 1102,1286 1101,1287 1100,1287 1099,1288 1098,1288 1096,1290 1095,1290 1094,1291 1092,1291 1089,1294 1088,1294 1087,1295 1086,1295 1084,1297 1083,1297 1080,1300 1079,1300 1076,1303 1075,1303 1073,1305 1072,1305 1067,1310 1065,1310 1063,1312 1062,1312 1061,1313 1060,1313 1059,1314 1055,1314 1054,1315 1051,1315 1050,1316 1049,1316 1048,1317 1046,1317 1045,1318 1043,1318 1042,1319 1040,1319 1039,1320 1038,1320 1037,1321 1036,1321 1035,1322 1034,1322 1033,1323 1032,1323 1031,1324 1030,1324 1029,1325 1028,1325 1026,1327 1025,1327 1024,1328 1023,1328 1018,1333 1017,1333 1007,1343 1007,1344 1002,1349 1002,1350 1000,1352 999,1352 998,1353 998,1354 996,1356 995,1356 995,1357 992,1360 992,1361 989,1364 989,1365 988,1366 988,1367 986,1369 986,1370 985,1371 984,1371 984,1372 983,1373 983,1374 982,1375 981,1375 980,1376 980,1377 975,1382 975,1383 973,1385 973,1386 970,1389 970,1390 969,1391 969,1392 966,1395 966,1396 965,1397 965,1398 964,1399 964,1400 962,1402 962,1403 960,1405 960,1406 955,1411 955,1412 952,1415 952,1416 951,1417 951,1418 949,1420 949,1421 947,1423 947,1425 945,1427 945,1428 944,1429 944,1430 943,1431 943,1432 942,1433 942,1436 941,1437 941,1438 940,1439 940,1440 938,1442 938,1443 937,1444 937,1446 936,1447 936,1448 935,1449 935,1450 933,1452 933,1455 932,1456 932,1457 931,1458 931,1459 930,1460 930,1461 929,1462 929,1463 928,1464 928,1467 927,1468 927,1469 926,1470 926,1471 925,1472 925,1473 924,1474 924,1476 923,1477 923,1481 922,1482 922,1485 921,1486 921,1490 920,1491 920,1497 919,1498 919,1510 918,1511 918,1549 919,1550 919,1562 920,1563 920,1566 921,1567 921,1575 922,1576 922,1586 923,1587 923,1596 924,1597 924,1604 925,1605 925,1608 926,1609 926,1613 927,1614 927,1616 928,1617 928,1623 929,1624 929,1628 930,1629 930,1701 931,1702 931,1710 932,1711 932,1715 933,1716 933,1730 934,1731 934,1734 935,1735 935,1737 936,1738 936,1741 937,1742 937,1745 938,1746 937,1747 938,1748 938,1750 939,1751 939,1754 940,1755 940,1756 941,1757 941,1759 942,1760 942,1765 943,1766 943,1768 944,1769 944,1770 945,1771 945,1773 946,1774 946,1776 947,1777 947,1783 948,1784 948,1786 949,1787 949,1788 950,1789 950,1791 951,1792 951,1793 952,1794 952,1795 951,1796 952,1797 952,1798 953,1799 953,1800 955,1802 955,1803 956,1804 956,1807 957,1808 957,1809 958,1810 958,1811 960,1813 960,1814 961,1815 961,1817 962,1818 962,1819 964,1821 964,1822 965,1823 965,1825 966,1826 965,1827 966,1828 966,1830 968,1832 968,1834 970,1836 970,1839 971,1840 971,1841 972,1842 972,1843 973,1844 973,1845 974,1846 974,1847 975,1848 975,1850 976,1851 976,1852 977,1853 977,1854 978,1854 979,1855 979,1856 980,1857 980,1858 981,1859 981,1860 983,1862 983,1863 984,1864 984,1865 986,1867 986,1868 987,1868 988,1869 988,1870 989,1871 989,1872 990,1873 990,1874 991,1875 991,1876 993,1878 993,1879 994,1880 994,1881 995,1882 996,1882 997,1883 997,1884 998,1885 998,1886 1003,1891 1003,1892 1007,1896 1007,1897 1021,1911 1022,1911 1025,1914 1026,1914 1029,1917 1030,1917 1032,1919 1033,1919 1038,1924 1039,1924 1041,1926 1042,1926 1044,1928 1045,1928 1046,1929 1047,1929 1050,1932 1051,1932 1052,1933 1054,1933 1055,1934 1056,1934 1057,1935 1058,1935 1060,1937 1062,1937 1063,1938 1066,1938 1067,1939 1069,1939 1070,1940 1072,1940 1074,1942 1076,1942 1077,1943 1080,1943 1081,1944 1082,1944 1083,1945 1085,1945 1086,1946 1087,1946 1088,1947 1093,1947 1094,1948 1097,1948 1098,1949 1101,1949 1102,1950 1105,1950 1106,1951 1111,1951 1112,1952 1120,1952 1121,1953 1128,1953 1129,1954 1135,1954 1136,1955 1139,1955 1140,1956 1144,1956 1145,1957 1155,1957 1156,1958 1162,1958 1163,1959 1178,1959 1179,1960 1180,1960 1181,1961 1184,1961 1185,1962 1186,1962 1187,1963 1189,1963 1191,1965 1193,1965 1194,1966 1197,1966 1198,1967 1199,1967 1200,1968 1203,1968 1204,1969 1207,1969 1208,1970 1212,1970 1213,1971 1219,1971 1220,1972 1225,1972 1226,1973 1227,1973 1228,1974 1229,1974 1230,1975 1231,1975 1232,1976 1233,1975 1234,1976 1236,1976 1237,1977 1238,1977 1239,1978 1241,1978 1242,1979 1244,1979 1245,1980 1252,1980 1253,1981 1259,1981 1260,1982 1272,1982 1273,1981 1279,1981 1280,1980 1287,1980 1288,1979 1290,1979 1291,1978 1293,1978 1294,1977 1295,1977 1296,1976 1298,1976 1299,1975 1300,1976 1301,1975 1302,1975 1304,1973 1305,1973 1306,1972 1307,1972 1308,1971 1310,1971 1312,1969 1313,1969 1316,1966 1317,1966 1319,1964 1320,1964 1323,1961 1324,1961 1334,1951 1334,1950 1336,1948 1336,1947 1340,1943 1340,1941 1344,1937 1344,1936 1345,1935 1345,1934 1346,1933 1346,1932 1348,1930 1348,1929 1350,1927 1350,1925 1351,1924 1352,1924 1353,1923 1353,1922 1355,1920 1355,1919 1357,1917 1357,1916 1360,1913 1360,1911 1362,1909 1362,1908 1364,1906 1364,1905 1366,1903 1366,1902 1368,1900 1368,1899 1372,1895 1372,1894 1373,1893 1373,1892 1374,1891 1374,1890 1376,1888 1376,1887 1378,1885 1378,1883 1379,1882 1379,1880 1380,1879 1380,1878 1381,1877 1381,1876 1382,1875 1382,1871 1383,1870 1383,1868 1385,1866 1385,1865 1386,1864 1386,1863 1387,1862 1387,1858 1388,1857 1388,1855 1389,1854 1389,1853 1390,1852 1390,1849 1391,1848 1391,1846 1392,1845 1392,1838 1393,1837 1393,1835 1394,1834 1394,1831 1395,1830 1395,1827 1396,1826 1396,1816 1397,1815 1397,1804 1398,1803 1398,1799 1399,1798 1399,1795 1400,1794 1400,1792 1401,1791 1401,1784 1402,1783 1402,1779 1403,1778 1403,1773 1404,1772 1404,1763 1405,1762 1405,1756 1406,1755 1406,1679 1405,1678 1405,1668 1406,1667 1406,1660 1407,1659 1407,1656 1408,1655 1408,1652 1409,1651 1409,1647 1410,1646 1410,1643 1411,1642 1410,1641 1410,1639 1411,1638 1411,1635 1412,1634 1412,1631 1413,1630 1413,1627 1414,1626 1414,1621 1415,1620 1415,1534 1414,1533 1414,1529 1413,1528 1413,1525 1414,1524 1414,1515 1415,1514 1415,1496 1414,1495 1414,1486 1413,1485 1413,1476 1412,1475 1412,1466 1411,1465 1411,1457 1410,1456 1410,1452 1411,1451 1410,1450 1410,1448 1409,1447 1409,1445 1408,1444 1408,1441 1407,1440 1407,1438 1406,1437 1406,1433 1405,1432 1405,1430 1404,1429 1404,1427 1403,1426 1403,1425 1402,1424 1402,1422 1401,1421 1401,1418 1400,1417 1400,1416 1399,1415 1399,1414 1398,1413 1398,1412 1397,1411 1397,1410 1396,1409 1396,1406 1395,1405 1395,1404 1394,1403 1394,1402 1393,1401 1393,1400 1392,1399 1392,1397 1391,1396 1391,1394 1389,1392 1389,1391 1388,1390 1388,1389 1387,1388 1387,1387 1386,1386 1386,1385 1385,1385 1384,1384 1384,1383 1382,1381 1382,1380 1381,1379 1381,1378 1378,1375 1378,1374 1376,1372 1376,1371 1375,1370 1374,1370 1373,1369 1373,1367 1372,1366 1371,1366 1370,1365 1370,1364 1369,1363 1369,1362 1368,1361 1367,1361 1366,1360 1366,1359 1361,1354 1361,1353 1346,1338 1346,1337 1345,1336 1345,1334 1343,1332 1343,1331 1342,1330 1342,1329 1341,1328 1341,1327 1339,1325 1339,1324 1336,1321 1336,1320 1331,1315 1331,1314 1330,1314 1326,1310 1326,1309 1325,1309 1317,1301 1317,1300 1316,1300 1312,1296 1312,1295 1311,1295 1307,1291 1306,1291 1302,1287 1301,1287 1300,1286 1299,1286 1297,1284 1296,1284 1295,1283 1294,1283 1292,1281 1290,1281 1289,1280 1288,1280 1285,1277 1284,1277 1283,1276 1282,1276 1279,1273 1278,1273 1277,1272 1276,1272 1275,1271 1274,1271 1273,1270 1272,1270 1271,1269 1270,1269 1269,1268 1268,1268 1267,1267 1265,1267 1264,1266 1263,1266 1262,1265 1261,1265 1260,1264 1259,1264 1258,1263 1256,1263 1255,1262 1252,1262 1251,1261 1249,1261 1248,1260 1246,1260 1245,1259 1241,1259 1240,1258 Z" fill="#000000" /><path class="DiffPath diff-3" d="M2474,940 2473,941 2469,941 2468,942 2465,942 2464,943 2462,943 2461,944 2459,944 2458,945 2456,945 2455,946 2454,946 2453,947 2451,947 2450,948 2449,948 2448,949 2447,949 2445,951 2444,951 2442,953 2441,953 2432,962 2432,963 2428,967 2428,968 2427,969 2427,970 2425,972 2425,973 2424,974 2424,975 2423,976 2423,977 2422,978 2422,979 2421,980 2421,982 2420,983 2420,985 2419,986 2419,987 2418,988 2418,991 2417,992 2417,996 2416,997 2416,1001 2415,1002 2415,1017 2416,1018 2416,1022 2417,1023 2417,1025 2418,1026 2418,1028 2419,1029 2419,1031 2420,1032 2420,1033 2421,1034 2421,1035 2423,1037 2423,1038 2424,1039 2424,1040 2425,1040 2426,1041 2426,1042 2434,1050 2435,1050 2437,1052 2438,1052 2439,1053 2440,1053 2441,1054 2443,1054 2444,1055 2445,1055 2446,1056 2447,1056 2448,1057 2450,1057 2451,1058 2453,1058 2454,1059 2458,1059 2459,1060 2464,1060 2465,1061 2467,1061 2468,1062 2499,1062 2500,1061 2502,1061 2503,1060 2506,1060 2507,1059 2509,1059 2510,1058 2512,1058 2513,1057 2514,1057 2515,1056 2517,1056 2518,1055 2519,1055 2520,1054 2521,1054 2522,1053 2523,1053 2525,1051 2526,1051 2528,1049 2529,1049 2539,1039 2539,1038 2542,1035 2542,1034 2544,1032 2544,1031 2545,1030 2545,1029 2546,1028 2546,1027 2548,1025 2548,1023 2549,1022 2549,1021 2550,1020 2550,1016 2551,1015 2551,999 2550,998 2550,993 2549,992 2549,988 2548,987 2548,984 2547,983 2547,981 2546,980 2546,979 2545,978 2545,976 2544,975 2544,974 2543,973 2543,972 2542,971 2542,970 2541,969 2541,968 2540,967 2540,966 2539,965 2539,964 2530,955 2529,955 2526,952 2525,952 2523,950 2522,950 2521,949 2520,949 2519,948 2518,948 2517,947 2516,947 2515,946 2514,946 2513,945 2512,945 2511,944 2510,944 2509,943 2507,943 2506,942 2503,942 2502,941 2499,941 2498,940 Z" fill="#000000" /><path class="DiffPath diff-4" d="M257,939 256,940 252,940 251,941 241,941 240,942 236,942 235,943 232,943 231,944 226,944 225,945 219,945 218,946 214,946 213,947 211,947 210,948 209,948 208,949 207,949 206,950 205,950 204,951 203,951 201,953 200,953 198,955 197,955 193,959 192,959 186,965 186,966 183,969 183,970 181,972 181,973 180,974 180,975 179,976 179,978 178,979 178,980 177,981 177,982 176,983 176,984 174,986 174,987 173,988 173,990 172,991 172,993 171,994 171,997 170,998 170,999 169,1000 169,1001 168,1002 168,1003 167,1004 167,1006 166,1007 166,1009 165,1010 165,1012 163,1014 163,1015 161,1017 161,1018 159,1020 159,1021 158,1022 158,1024 157,1025 157,1026 156,1027 156,1028 155,1029 155,1031 154,1032 154,1033 153,1034 153,1035 152,1036 152,1037 151,1038 151,1039 150,1040 150,1041 149,1042 149,1043 148,1044 148,1045 147,1046 147,1047 146,1048 146,1050 145,1051 145,1052 144,1053 144,1056 143,1057 143,1059 142,1060 142,1063 141,1064 141,1066 140,1067 140,1070 139,1071 139,1076 138,1077 138,1111 139,1112 139,1117 140,1118 140,1121 141,1122 141,1125 142,1126 142,1129 143,1130 143,1132 144,1133 144,1135 145,1136 145,1139 146,1140 146,1143 147,1144 147,1147 148,1148 148,1151 149,1152 149,1154 150,1155 150,1156 151,1157 151,1158 152,1159 152,1160 153,1161 153,1162 154,1163 154,1164 155,1165 155,1166 157,1168 157,1169 158,1170 158,1171 171,1184 172,1184 174,1186 175,1186 177,1188 178,1188 179,1189 180,1189 181,1190 182,1190 183,1191 184,1191 185,1192 186,1192 187,1193 189,1193 190,1194 192,1194 193,1195 195,1195 196,1196 198,1196 199,1197 202,1197 203,1198 206,1198 207,1199 210,1199 211,1200 214,1200 215,1201 218,1201 219,1202 246,1202 247,1201 254,1201 255,1200 261,1200 262,1199 265,1199 266,1198 268,1198 269,1197 271,1197 272,1196 274,1196 275,1195 277,1195 278,1194 280,1194 281,1193 283,1193 284,1192 286,1192 287,1191 289,1191 290,1190 292,1190 293,1189 294,1189 295,1188 297,1188 298,1187 300,1187 301,1186 302,1186 303,1185 305,1185 306,1184 307,1184 308,1183 309,1183 311,1181 312,1181 313,1180 314,1180 316,1178 317,1178 319,1176 320,1176 322,1174 323,1174 325,1172 326,1172 329,1169 330,1169 333,1166 334,1166 336,1164 337,1164 339,1162 340,1162 348,1154 348,1153 350,1151 350,1150 352,1148 352,1147 354,1145 354,1144 356,1142 356,1141 359,1138 359,1137 362,1134 362,1133 364,1131 364,1130 366,1128 366,1126 367,1125 367,1124 368,1123 368,1122 369,1121 369,1119 370,1118 370,1117 371,1116 371,1114 372,1113 372,1112 373,1111 373,1107 374,1106 374,1102 375,1101 375,1096 376,1095 376,1028 375,1027 375,1024 374,1023 374,1021 373,1020 373,1018 372,1017 372,1015 371,1014 371,1012 370,1011 370,1008 369,1007 369,1004 368,1003 368,1001 367,1000 367,998 366,997 366,995 365,994 365,992 364,991 364,989 363,988 363,986 362,985 362,984 361,983 361,982 359,980 359,979 357,977 357,976 355,974 355,973 351,969 351,968 347,964 346,964 342,960 341,960 339,958 338,958 336,956 335,956 333,954 332,954 330,952 329,952 327,950 326,950 325,949 324,949 323,948 322,948 321,947 320,947 319,946 318,946 317,945 316,945 315,944 314,944 313,943 311,943 310,942 308,942 307,941 305,941 304,940 301,940 300,939 Z" fill="#000000" /><path class="DiffPath diff-5" d="M3062,420 3061,421 3058,421 3057,422 3056,422 3055,423 3054,423 3053,424 3052,424 3051,425 3050,425 3049,426 3048,426 3040,434 3040,435 3038,437 3038,438 3037,439 3037,440 3036,441 3036,442 3035,443 3035,446 3034,447 3034,449 3033,450 3033,460 3034,461 3034,463 3035,464 3035,466 3036,467 3036,469 3037,470 3037,471 3038,472 3038,473 3039,474 3039,475 3043,479 3043,480 3044,481 3045,481 3049,485 3050,485 3051,486 3052,486 3053,487 3054,487 3055,488 3057,488 3058,489 3062,489 3063,490 3063,491 3062,492 3062,493 3061,494 3061,495 3060,496 3060,497 3059,498 3059,499 3058,500 3058,503 3057,504 3057,508 3056,509 3056,516 3057,517 3057,521 3058,522 3058,524 3059,525 3059,527 3061,529 3061,530 3062,531 3062,532 3063,533 3063,534 3064,535 3064,536 3066,538 3066,539 3068,541 3068,542 3073,547 3073,548 3075,550 3076,550 3084,558 3085,558 3089,562 3090,562 3093,565 3094,565 3096,567 3097,567 3099,569 3100,569 3101,570 3102,570 3103,571 3104,571 3105,572 3106,572 3107,573 3108,573 3109,574 3110,574 3111,575 3112,575 3113,576 3115,576 3116,577 3118,577 3119,578 3120,578 3121,579 3123,579 3124,580 3126,580 3127,581 3129,581 3130,582 3133,582 3134,583 3138,583 3139,584 3141,584 3142,585 3145,585 3146,586 3150,586 3151,587 3154,587 3155,588 3158,588 3159,589 3161,589 3162,590 3166,590 3167,591 3172,591 3173,592 3178,592 3179,593 3184,593 3185,594 3191,594 3192,595 3196,595 3197,596 3202,596 3203,597 3205,597 3206,598 3208,598 3209,599 3211,599 3212,600 3214,600 3215,601 3217,601 3218,602 3220,602 3221,603 3223,603 3224,604 3226,604 3227,605 3228,605 3229,606 3230,606 3231,607 3232,607 3233,608 3234,608 3235,609 3237,609 3238,610 3239,610 3240,611 3241,611 3243,613 3244,613 3245,614 3246,614 3247,615 3248,615 3250,617 3251,617 3252,618 3253,618 3255,620 3256,620 3257,621 3258,621 3259,622 3260,622 3261,623 3262,623 3264,625 3265,625 3266,626 3267,626 3269,628 3270,628 3271,629 3272,629 3274,631 3275,631 3277,633 3278,633 3280,635 3281,635 3282,636 3283,636 3285,638 3286,638 3288,640 3289,640 3291,642 3292,642 3294,644 3295,644 3296,645 3297,645 3298,646 3299,646 3301,648 3303,648 3304,649 3305,649 3307,651 3308,651 3310,653 3311,653 3314,656 3315,656 3316,657 3317,657 3318,658 3319,658 3320,659 3322,659 3323,660 3326,660 3327,661 3330,661 3331,662 3335,662 3336,663 3338,663 3339,664 3365,664 3366,663 3369,663 3370,662 3371,662 3372,661 3374,661 3376,659 3377,659 3378,658 3379,658 3381,656 3382,656 3388,650 3388,649 3391,646 3391,645 3392,644 3392,643 3393,642 3393,641 3394,640 3394,638 3395,637 3395,635 3396,634 3396,631 3397,630 3397,626 3398,625 3398,622 3399,621 3399,619 3400,618 3400,614 3401,613 3401,611 3402,610 3402,607 3403,606 3403,599 3404,598 3404,588 3405,587 3405,548 3404,547 3404,537 3403,536 3403,528 3402,527 3402,521 3401,520 3401,518 3400,517 3400,513 3399,512 3399,509 3398,508 3398,505 3397,504 3397,502 3396,501 3396,499 3395,498 3395,496 3394,495 3394,492 3393,491 3393,490 3392,489 3392,487 3391,486 3391,483 3390,482 3390,474 3389,473 3389,470 3388,469 3388,462 3387,461 3387,453 3386,452 3386,449 3385,448 3385,446 3384,445 3384,444 3383,443 3383,442 3382,441 3382,440 3381,439 3381,438 3377,434 3377,433 3376,433 3372,429 3371,429 3369,427 3368,427 3367,426 3366,426 3365,425 3363,425 3362,424 3358,424 3357,423 3326,423 3325,424 3315,424 3314,425 3295,425 3294,426 3289,426 3288,427 3283,427 3282,428 3265,428 3264,429 3251,429 3250,430 3186,430 3185,429 3154,429 3153,428 3134,428 3133,427 3112,427 3111,426 3102,426 3101,425 3093,425 3092,424 3088,424 3087,423 3084,423 3083,422 3080,422 3079,421 3077,421 3076,420 Z" fill="#000000" /><path class="DiffPath diff-6" d="M2699,242 2698,243 2691,243 2690,244 2682,244 2681,245 2676,245 2675,246 2670,246 2669,247 2667,247 2666,248 2664,248 2663,249 2658,249 2657,250 2652,250 2651,251 2649,251 2648,252 2647,252 2646,253 2645,253 2644,254 2643,254 2642,255 2640,255 2639,256 2638,256 2637,257 2636,257 2634,259 2633,259 2632,260 2631,260 2629,262 2628,262 2627,263 2626,263 2620,269 2619,269 2619,270 2615,274 2615,275 2613,277 2613,279 2611,281 2611,282 2609,284 2609,285 2608,286 2608,288 2607,289 2607,290 2606,291 2606,292 2604,294 2604,296 2603,297 2603,298 2602,299 2602,300 2600,302 2600,303 2599,304 2599,306 2598,307 2598,308 2597,309 2597,310 2595,312 2595,313 2594,314 2595,315 2594,316 2594,317 2593,318 2593,319 2592,320 2592,322 2589,325 2589,326 2587,328 2587,329 2586,330 2585,330 2585,331 2584,332 2584,334 2583,335 2583,336 2582,337 2582,338 2580,340 2580,342 2577,345 2577,346 2576,347 2576,348 2575,349 2575,350 2574,351 2574,352 2573,353 2573,354 2572,355 2572,356 2571,357 2571,361 2570,362 2570,363 2569,364 2569,367 2568,368 2568,370 2566,372 2566,374 2565,375 2565,376 2564,377 2564,379 2563,380 2563,381 2562,382 2562,387 2561,388 2561,396 2560,397 2560,406 2561,407 2561,424 2560,425 2560,428 2559,429 2559,432 2558,433 2558,446 2559,447 2559,451 2560,452 2560,455 2561,456 2561,457 2562,458 2561,459 2562,460 2562,461 2563,462 2563,463 2565,465 2565,466 2566,467 2566,469 2570,473 2570,474 2579,483 2580,483 2582,485 2583,485 2586,488 2588,488 2589,489 2590,489 2591,490 2592,490 2593,491 2595,491 2596,492 2598,492 2599,493 2605,493 2606,494 2628,494 2629,493 2643,493 2644,494 2674,494 2675,495 2682,495 2683,496 2688,496 2689,497 2690,497 2691,498 2692,498 2693,499 2694,499 2695,500 2696,500 2697,501 2698,501 2699,502 2701,502 2702,503 2703,503 2707,507 2709,507 2711,509 2712,509 2714,511 2716,511 2717,512 2718,512 2719,513 2720,513 2721,514 2722,514 2723,515 2724,515 2725,516 2727,516 2729,518 2730,518 2731,519 2732,519 2733,520 2734,520 2735,521 2739,521 2740,522 2742,522 2743,523 2745,523 2746,524 2749,524 2750,525 2755,525 2756,526 2759,526 2760,527 2765,527 2766,528 2780,528 2781,527 2786,527 2787,526 2790,526 2791,525 2797,525 2798,524 2800,524 2801,523 2803,523 2804,522 2805,522 2806,521 2809,521 2811,519 2812,519 2813,518 2814,518 2816,516 2818,516 2820,514 2821,514 2825,510 2826,510 2830,506 2830,505 2834,501 2834,500 2835,499 2835,498 2837,496 2837,494 2839,492 2839,491 2840,490 2840,489 2842,487 2842,484 2844,482 2844,480 2845,479 2845,478 2846,477 2846,473 2847,472 2847,470 2848,469 2848,466 2849,465 2849,461 2850,460 2850,447 2851,446 2851,443 2853,441 2853,439 2854,438 2854,437 2855,436 2855,433 2856,432 2856,417 2857,416 2857,414 2858,413 2858,410 2859,409 2859,406 2860,405 2860,402 2861,401 2860,400 2860,369 2859,368 2859,366 2858,365 2858,363 2857,362 2857,360 2856,359 2856,354 2855,353 2855,351 2854,350 2854,349 2853,348 2853,346 2852,345 2852,344 2851,343 2851,341 2849,339 2849,338 2848,337 2848,335 2847,334 2847,333 2846,332 2846,327 2845,326 2845,324 2844,323 2844,321 2843,320 2843,319 2842,318 2842,315 2841,314 2841,312 2839,310 2839,308 2837,306 2837,302 2835,300 2835,299 2834,298 2834,297 2832,295 2832,294 2829,291 2829,290 2827,288 2826,288 2824,286 2824,285 2822,283 2821,283 2817,279 2816,279 2815,278 2814,278 2812,276 2811,276 2809,274 2807,274 2806,273 2805,273 2804,272 2803,272 2802,271 2801,271 2794,264 2793,264 2791,262 2791,261 2790,260 2789,260 2788,259 2787,259 2783,255 2782,255 2781,254 2780,254 2778,252 2777,252 2775,250 2773,250 2772,249 2771,249 2770,248 2769,248 2768,247 2766,247 2765,246 2761,246 2760,245 2757,245 2756,244 2754,244 2753,243 2749,243 2748,242 Z" fill="#000000" /></svg>